<svg height="39pt" preserveAspectRatio="none" viewBox="0 0 39 39" width="39pt" xmlns="http://www.w3.org/2000/svg"><path d="m1.0001 1.0001v6.9998h6.9998v-6.9998zm8.9998 0v2.0001h-1v5.9997h1v-2.0001h1v-1h-1v-2.0001h1v-2.9996zm1 5.9997v2.0001h1v-2.0001zm1 2.0001v1h2.0001v-1h1v-1h-1v-3.0001h-2.0001v1h1v3.0001zm2.0001-4.0001h1v3.0001h1v-1h.99955v-1h-.99955v-1h2.9996v-1h-1v-.99955h1v-1h-1v-1h-1.9996v1h.99955v1.9996h-.99955v-1.9996h-1v-1h-3.0001v2.9996h2.0001v-.99955h-1v-1h1v1h1v.99955h-1zm4.9997-2.9996h1v-1h-1zm1 0v3.9997h1v2.0001h-1v1h-1v1h3.0001v1h1v-1h1v1h1v-1h1v1h1v-1h2.0001v-1h-1v-2.0001h1v2.0001h1v-4.0001h-1v1h-4.0001v3.0001h-3.0001v-4.0001h-1v-1h2.0001v1h1v-1h1v-.99955h-1v-1h-1v-1h-2.0001v1h1v1h-1v-1h-1zm5.0002 1h1v-2.0001h-1zm-1 1.9996v1h1v-1zm0 1h-1v2.0001h1zm5.0002-1v-1h-1v-.99955h1v.99955h1v-2.9996h-3.0001v2.9996h-1v1zm0 5.0002v1h1v1h.99955v1h-.99955v-1h-1v3.0001h-1v1h2.0001v-2.0001h1.9996v1h-1v1h1v.99955h1v1h1v-1.9996h1v-1h-2.0001v-1h2.0001v-1h-2.0001v-1h2.0001v-1h1v1h1v1h-1v1h2.0001v-3.0001h-1v-1h-1v-1h-5.0002v1h1v1h-1v-1h-1.9996zm4.9997 7.9998v1h1v-1zm1 0h1v1h-1v1h2.0001v1h1v-2.0001h-1v-1h1v-2.9996h-2.0001v1h1v.99955h-2.0001zm0 2.0001h-1v-1h-1v-1h-1v2.0001h-1v1h-1.9996v2.0001h-2.0001v1h1v1h-2.0001v1h3.0001v-2.0001h1v-2.0001h1.9996v-1h1v1h1v1h-3.0001v1h-.99955v2.0001h1.9996v-1h1v1h1v-2.0001h1v-2.0001h1v-1h-1v-1zm1 2.0001v3.0001h2.0001v-2.0001h-1v-1h-1zm0 3.0001h-1v3.0001h1v1h1v-1h1v-1h-2.0001v-2.0001zm1 4.0001v1h1v-1zm-1 0h-1v1h1zm-1 1h-1v-1h-3.0001v-2.0001h-.99955v-1h-1v1h-2.0001v2.0001h2.0001v1h-1v.99955h1v2.0001h-2.0001v1h3.0001v1h1.9996v-1h1v1h1v1h1v-2.0001h-1v-1h1v-1h-1v-1h1v-.99955zm0 .99955v1h1v1h-1v1h2.0001v1h-1v1h1v1h-2.0001v1h3.0001v-5.0002h-1v-1h1v-1h-3.0001zm-1 5.0002h-1v2.0001h1zm-3.9997-1h-1v1h-1v1h2.0001v1h1.9996v-1h-1v-1h-.99955v-1zm-2.0001 2.0001h-2.0001v-1h-2.0001v-1h2.0001v1h2.0001v-1h-1v-1h-1v-1h-1v1h-2.0001v2.0001h-2.0001v-1h-1v3.0001h1v-1h4.0001v1h3.0001v-1zm-8.0003-2.0001v-1h-2.0001v1zm-2.0001 0h-1v-1h-.99955v1h-2.0001v1h2.0001v2.0001h.99955v-2.0001h1zm-3.9997 1h-1v1h1zm0 1v1h1v-1zm-1 0h-2.0001v1h2.0001zm-2.0001 0v-1h-1v1zm-1 0h-1v1h1zm0-1v-4.0001h-1v4.0001zm4.0001-1v-1h1v-1h-2.0001v2.0001zm2.9996-1h1v-1h-1zm0-1v-1h1v1h2.0001v1h1v-1h1v1h1v-1h2.0001v-1h-2.0001v-1.9996h-1v-1h-1v1h-2.0001v-1h-1v1h-1v.99955h-.99955v-1.9996h-1v2.9996h1v1zm-1.9996-3.9997v-1h-1v-1h-1v-1h-3.0001v1h1v1h2.0001v2.0001h1v-1zm-4.0001-1h-1v-1h-1v3.9997h3.0001v-.99955h-2.0001v-1h1v-1zm-2.0001-1v-1h-1v1zm-1 0h-1v-1h1v-1h-1v-1h1v1h1v-1h1v1h1v-1h1v1h1v-1h1v-1h-2.0001v-1h-1v1h-2.0001v-2.0001h-2.0001v1h1v1h-3.0001v-3.0001h-2.9996v-2.0001h1v1h2.9996v-1h-2.0001v-1h-2.9996v4.0001h2.0001v1h.99955v2.0001h-.99955v1h-1v-1h-1v6.0002h1v-3.0001h1v-1h.99955v-1h1v-1h1v2.0001h-1v1h1v1h2.0001v-1zm-2.0001 1h-1v2.0001h1zm-2.9996-1v2.0001h.99955v-2.0001zm2.9996-9.0003h3.0001v-1h-2.0001v-.99955h-1v-1h-1v1.9996h1zm1-1.9996h1v-1h-1zm2.0001 1.9996v1h1v1h-1v1h3.0001v1h3.0001v1h1v-1h.99955v-2.0001h1v-1h-1v-1h1v-1h3.0001v-.99955h-2.0001v-1h3.0001v2.9996h1v-1h1v-.99955h-1v-2.0001h-4.0001v-1h-1v-1h-1v2.0001h-.99955v2.0001h.99955v.99955h-1.9996v-2.9996h1v-2.0001h-2.0001v-1h-2.0001v1h1v1h1v1h-1v1h1v1h-1v.99955h1v3.0001h-1v-1h-1v1h-1v-3.0001h-1v1h-1zm4.0001-1h-1v1h1zm0-2.9996v-1h-1v-1h-2.0001v1h1v1zm-3.0001-1h-1v1h1zm-1 0v-1h1v-1h1v-2.0001h-1v1h-1v1h-2.0001v-1h1v-1h-4.9997v2.0001h-1v-2.0001h-1v4.0001h1v-1h1v2.0001h1.9996v-1h2.0001v-1h1v1zm-1 0h-1v1h1zm-4.9997 1h-2.0001v1h1v1h1.9996v-1h-.99955v-1zm11-3.0001h1v-1h-1zm3.9997 1h1v1h1v-2.0001h-2.0001zm0-1v-1h-1.9996v1zm5.0002 6.9998v2.0001h1v-1h1v-1h-2.0001zm2.0001 0h2.0001v1h1v-1h1v-1h-1v-.99955h-1v.99955h-2.0001zm4.0001 0v1h-1v1h-1v1h-1v1h2.0001v-1h1v-1h1v-2.0001h-1zm1 0h1.9996v-1h-1.9996zm-4.0001 3.0001v-1h1v-1h-2.0001v2.0001zm-3.0001-1h-2.0001v-1h-1v-1h-1v2.0001h1v2.0001h-1v2.0001h1v-1h2.0001v-2.0001h1v-1zm0 1v1h1v-1zm1 1v1h1v-1zm0 1h-1v1h1zm-5.0002-1v-1h-1v1zm-1 0h-1v1h1zm-1 1h-.99955v1h.99955zm0 1v1h1v-1zm-.99955 0h-1v1h1zm-1 1h-2.0001v1h2.0001zm5.9997-6.0002h1v-1h-1zm-15 0v1h2.0001v-1zm4.0001 6.0002h-1v1h1zm7.9998 4.0001v-1h-1v1zm4.0001 0h1v1h1v.99955h1v-.99955h1v.99955h1v-1.9996h-2.0001v-1h-2.0001v-1h-2.0001v1h1zm3.0001-1h1v-1h-1zm0-1v-2.0001h-4.0001v1h3.0001v1zm0-2.0001h1v-1h-1zm-3.0001 8.9998h-1v1h1zm11-7.9998h-1v1h1zm0 1v1h1v-1zm-4.9997-12v-3.0001h-1v1h-2.0001v1h1v1zm-2.0001 0h-1v1h1zm-1 0v-1h-1v1zm3.0001-3.0001h1v-1h-1zm-2.0001-1h-1v1h1zm-4.0001 0h-1v1h1zm0 1v1h1v-1zm-2.0001-4.0001v-2.0001h-1v2.0001zm-3.0001-1v1h-.99955v1h1.9996v-2.0001h-1zm14-5.9997v6.9998h7.0003v-6.9998zm-29 1h4.9997v4.9997h-4.9997zm30 0h5.0002v4.9997h-5.0002zm-29 1v2.9996h2.9996v-2.9996zm30 0v2.9996h3.0001v-2.9996zm-6.9998 3.9997h1v2.0001h-1zm-22 3.0001h2.0001v2.0001h-2.0001zm29 0h1v1h-1zm-18 7.9998h1v1h-1zm-14 4.0001v1h1v-1zm18 3.0001v1h1v-1zm0 1h-2.9996v1h2.9996zm-12 3.0001v1h1v-1zm23 1h2.9996v2.9996h-2.9996zm-29 .99955v7.0003h6.9998v-7.0003zm12 0v1h1v-1zm5.9997 0h2.0001v1h-2.0001zm12 0v1h1v-1zm-29 1h4.9997v5.0002h-4.9997zm8.9998 0v3.0001h1v-3.0001zm-7.9998 1v3.0001h2.9996v-3.0001zm15 4.0001v1h1v-1z"/></svg>