<svg height="39pt" preserveAspectRatio="none" viewBox="0 0 39 39" width="39pt" xmlns="http://www.w3.org/2000/svg"><path d="m1 1v7.8481h7.8481v-7.8481h-7.8481zm8.9696 0v2.242h2.2425v-1.121h-1.1215v-1.121zm2.2425 1.121h1.121v-1.121h-1.121zm1.121 0v1.121h-1.121v1.1215h1.121v1.121h1.121v-2.2425h2.2425v-2.242h-2.2425v1.121zm-1.121 2.2425h-2.2425v1.121h2.2425zm7.8481-3.3635v1.121h1.1215v1.121h1.121v-1.121h2.2425v-1.121h-4.4851zm1.1215 2.242h-1.1215v1.1215h1.1215zm-1.1215 1.1215h-1.121v1.121h1.121zm-1.121 0v-1.1215h-1.1215v1.1215zm-1.1215 0h-1.121v1.121h-1.121v1.1215h1.121v2.242h1.121zm1.1215-1.1215h1.121v-1.121h-1.121zm6.7271-2.242v1.121h1.1215v1.121h2.242v-1.121h-1.121v-1.121zm1.1215 2.242h-1.1215v1.1215h-1.121v-1.1215h-1.1215v3.3641h-1.121v1.121h1.121v2.2425h1.1215v-2.2425h1.121v2.2425h3.3635v-2.2425h-1.121v1.121h-1.121v-2.242h-2.2425v-1.1215h2.2425v-2.2425zm-1.1215 6.7276h-1.121v1.121h-1.1215v-1.121h-1.121v-2.2425h-1.121v1.121h-1.1215v1.1215h-1.121v4.4845h1.121v-1.121h1.1215v-1.121h-1.1215v-1.1215h2.2425v1.1215h1.121v2.242h1.1215v-1.121h1.121v-1.121h1.1215v1.121h1.121v1.121h1.121v-2.242h-1.121v-1.1215h-2.2425zm3.3635 4.4845v1.1215h1.1215v-1.1215zm0 1.1215h-1.121v3.3635h1.121v1.121h1.1215v1.1215h-1.1215v1.121h3.3641v1.121h1.121v-2.242h1.121v-1.1215h-1.121v-1.121h1.121v1.121h1.1215v-3.3635h-3.3635v-1.121h2.242v-3.3635h1.1215v-1.1215h-1.1215v-1.121h-1.121v2.2425h-1.121v-1.1215h-1.1215v-1.121h-1.121v2.2425h1.121v4.4845h-1.121v1.121h-1.1215v-2.242zm6.7276-4.4851h1.121v1.1215h-1.121v1.121h1.121v1.121h-1.121v2.2425h1.121v-1.121h1.1215v-5.6061h-2.2425zm0 8.9696v1.1215h-1.1215v1.121h2.2425v-1.121h1.1215v-1.1215zm-2.2425 3.3635v1.1215h1.121v1.121h-1.121v2.2425h1.121v-1.121h1.1215v3.3635h1.121v-1.1215h1.1215v-4.4845h-1.1215v1.121h-1.121v-1.121h1.121v-1.1215zm0 4.4851h-1.121v-2.2425h-1.1215v-1.121h-1.121v1.121h-2.2425v-2.2425h-1.121v2.2425h-1.1215v1.1215h1.1215v1.121h1.121v1.121h-1.121v1.1215h-1.1215v1.121h-1.121v1.1215h2.2425v1.121h4.4845v1.121h-1.121v1.1215h-1.1215v1.121h1.1215v1.1215h1.121v-1.1215h1.1215v1.1215h1.121v-2.2425h-1.121v-2.2425h1.121v-1.121h1.121v1.121h1.1215v-2.2425h-2.2425v-1.121h1.121v-1.1215h-1.121zm2.2425 5.6061v1.121h2.2425v-2.242h-1.1215v1.121zm0 1.121h-2.2425v1.1215h2.2425zm-11.212-2.242h-1.1215v1.121h-2.242v1.121h1.121v1.1215h-4.4851v2.2425h4.4851v-1.1215h1.121v-2.2425h1.1215v1.1215h1.121v-2.2425h-1.121zm1.121 3.3635v1.121h1.1215v-1.121zm1.1215 1.121v1.1215h1.121v-1.1215zm-1.1215 0h-2.2425v1.1215h2.2425zm-7.8486-1.121v-1.1215h-2.242v-2.242h1.121v1.121h1.121v-2.2425h-3.3635v2.2425h-1.121v-2.2425h1.121v-2.2425h-1.121v1.1215h-1.121v3.3635h-2.2425v2.2425h1.121v-1.1215h2.2425v1.1215h-1.121v1.121h-2.2425v1.1215h4.4845v-1.1215h1.1215v1.1215h1.121v-2.2425zm-3.3635-6.7276h1.1215v-1.121h-1.1215zm6.7276 4.4851v-1.121h-1.1215v1.121zm2.242-1.121v-1.1215h1.1215v-1.121h-1.1215v-1.1215h-2.242v-1.121h-1.1215v2.2425h2.2425v2.2425c.37366 0 .74733 0 1.121.000001zm-3.3635-2.2425h-1.121v1.121h1.121zm-1.121 0v-2.2425h-1.1215v2.2425zm-1.1215-2.2425v-2.2425h-1.121v-1.121h-1.121v2.2425h1.121v1.121zm-1.121-3.3635h1.121v1.121h1.1215v-2.2425h1.121v-1.121h-1.121v-3.3635h-1.1215v1.121h-1.121v-1.121h-2.2425v1.121h1.1215v1.1215h1.121v1.121h1.121v1.121h-1.121zm-2.2425-4.4851h-1.121v1.1215h1.121zm4.4851-1.121h1.121v-2.2425h1.1215v3.3635h3.3635v1.1215h1.121v1.121h1.1215v-1.121h2.242v-1.1215h-2.242v-2.2425h-1.1215v-1.121h-1.121v1.121h-2.2425v-2.242h1.121v-1.1215h-1.121v-1.121h-1.121v2.2425h-2.2425v1.121h-1.1215v1.121h1.1215zm6.7271 3.3635h-1.121v1.121h1.121zm-1.121 1.121h-3.3635v1.1215h-1.1215v1.121h-1.121v2.2425h1.121v-1.121h1.1215v-1.1215h1.121v-1.121h2.2425zm0 1.1215v1.121h1.121v-1.121zm0-2.2425v-1.121h-1.1215v1.121zm-3.3635-2.2425h-1.1215v2.2425h1.1215zm5.6061 8.9696v-1.121h-1.1215v1.121zm1.121-5.6061h1.121v-1.121h-1.121zm0-7.8481v-1.1215h-1.121v1.1215zm-3.3635-1.1215v1.1215h1.121v-1.1215zm-4.4851-5.6061v-1.121h-1.121v1.121zm10.091-7.8481v7.8481h7.8486v-7.8481zm-28.03 1.121h5.6061v5.6061h-5.6061zm29.151 0h5.6061v5.6061h-5.6061zm-28.03 1.121v3.3641h3.3641v-3.3641zm29.152 0v3.3641h3.3635v-3.3641zm-4.4851 1.1215v2.2425h1.121v-2.2425zm-17.939 3.3635v2.2425h2.2425v-1.1215h-1.1215v-1.121zm2.2425 1.121h1.121v-1.121h-1.121zm1.121 0v2.2425h1.121v-2.2425zm1.121 0h1.1215v-1.121h-1.1215zm-4.4845 1.1215h-3.3635v1.121h-1.1215v-1.121h-2.2425v2.2425h-2.242v1.121h1.121v1.121h1.121v1.1215h2.2425v1.121h1.1215v3.3635h-3.3641v-1.121h-1.121v1.121h-1.121v2.2425h1.121v1.121h-1.121v2.2425h1.121v-1.121h1.121v2.2425h-1.121v1.121h2.2425v-1.121h4.4845v-1.1215h-2.242v-1.121h-2.2425v-1.1215h-1.1215v-2.242h1.1215v1.121h1.121v1.121h2.2425v-1.121h1.121v-1.121h-1.121v-1.1215h3.3635v1.1215h-1.121v1.121h2.2425v-3.3635h-1.1215v-2.2425h5.6061v-1.121h-2.2425v-1.1215h-1.121v-1.121h1.121v-1.121h-2.242v1.121h-1.1215v2.2425h-1.121v1.121h-2.2425v-1.121h-1.121v-1.1215h-1.1215v-2.242h1.1215v1.121h2.242v-1.121h-1.121v-1.1215h1.121v1.1215h1.1215zm0 2.2425v1.121h1.121v-1.121zm1.121 0h1.1215v-1.1215h-1.1215zm-1.121 1.121h-1.1215v1.121h-1.121v1.1215h2.2425zm4.4845 0v1.121h3.3635v-4.4845h-1.121v3.3635zm-4.4845 8.9696h-1.1215v1.121h-1.121v1.1215h1.121v1.121h1.1215v1.1215h-1.1215v1.121h-1.121v1.121h2.2425v3.3641h1.121v-3.3641h1.1215v-1.121h-1.1215v-1.121h1.1215v-1.1215h1.121v-1.121h1.121v-1.1215h1.1215v-1.121h-2.2425v1.121h-3.3635zm2.2425 4.4851v1.121h1.121v-1.121zm-7.8486 1.121v1.121h1.121v-1.121zm-2.2425 0h-1.121v1.121h1.121zm0-8.9696v-1.1215h-1.121v1.1215zm-1.121-8.9696v1.121h1.121v-1.121zm31.394 3.3635h1.121v1.121h-1.121c0-.37366 0-.74733-.000001-1.121zm-29.152 3.3635v1.121h1.1215v-1.121zm4.4851 1.121h1.121v1.1215h-1.121zm23.545 0h1.1215v3.3641h-1.1215zm-8.9696 8.9702v1.121h1.121v-1.121zm7.8486 0h1.121v1.121h-1.121zm-1.1215 2.242h3.3641v3.3641h-3.3641zm-28.03 1.1215v7.8486h7.8481v-7.8486zm29.151 0v1.121h1.121v-1.121zm-28.03 1.121h5.6061v5.6061h-5.6061zm1.121 1.1215v3.3635h3.3641v-3.3635zm33.636 3.3635v1.121h1.1215v-1.121zm-2.2425 1.121v1.1215h1.1215v-1.1215z"/></svg>